<mxfile host="65bd71144e">
    <diagram id="r7um1j5F53xWlEHFAw9k" name="MCD">
        <mxGraphModel dx="1658" dy="373" grid="1" gridSize="10" guides="1" tooltips="1" connect="1" arrows="1" fold="1" page="1" pageScale="1" pageWidth="850" pageHeight="1100" math="0" shadow="0">
            <root>
                <mxCell id="0"/>
                <mxCell id="1" parent="0"/>
                <mxCell id="YBCSbpK7bjYAT15zlKTE-2" style="edgeStyle=none;html=1;entryX=0.5;entryY=0;entryDx=0;entryDy=0;" parent="1" source="ax8WsIaLXXuVoxloAJdS-6" target="YBCSbpK7bjYAT15zlKTE-1" edge="1">
                    <mxGeometry relative="1" as="geometry"/>
                </mxCell>
                <mxCell id="ax8WsIaLXXuVoxloAJdS-6" value="teacher" style="swimlane;fontStyle=0;childLayout=stackLayout;horizontal=1;startSize=26;fillColor=none;horizontalStack=0;resizeParent=1;resizeParentMax=0;resizeLast=0;collapsible=1;marginBottom=0;whiteSpace=wrap;html=1;" parent="1" vertex="1">
                    <mxGeometry x="380" y="260" width="210" height="130" as="geometry"/>
                </mxCell>
                <mxCell id="ax8WsIaLXXuVoxloAJdS-7" value="+ Id_teacher: Int" style="text;strokeColor=none;fillColor=none;align=left;verticalAlign=top;spacingLeft=4;spacingRight=4;overflow=hidden;rotatable=0;points=[[0,0.5],[1,0.5]];portConstraint=eastwest;whiteSpace=wrap;html=1;" parent="ax8WsIaLXXuVoxloAJdS-6" vertex="1">
                    <mxGeometry y="26" width="210" height="26" as="geometry"/>
                </mxCell>
                <mxCell id="ax8WsIaLXXuVoxloAJdS-8" value="+ fullname_teacher: stringvarchar(20)" style="text;strokeColor=none;fillColor=none;align=left;verticalAlign=top;spacingLeft=4;spacingRight=4;overflow=hidden;rotatable=0;points=[[0,0.5],[1,0.5]];portConstraint=eastwest;whiteSpace=wrap;html=1;" parent="ax8WsIaLXXuVoxloAJdS-6" vertex="1">
                    <mxGeometry y="52" width="210" height="26" as="geometry"/>
                </mxCell>
                <mxCell id="ax8WsIaLXXuVoxloAJdS-9" value="+ adress_teacher:&lt;br&gt;: string" style="text;strokeColor=none;fillColor=none;align=left;verticalAlign=top;spacingLeft=4;spacingRight=4;overflow=hidden;rotatable=0;points=[[0,0.5],[1,0.5]];portConstraint=eastwest;whiteSpace=wrap;html=1;" parent="ax8WsIaLXXuVoxloAJdS-6" vertex="1">
                    <mxGeometry y="78" width="210" height="26" as="geometry"/>
                </mxCell>
                <mxCell id="ax8WsIaLXXuVoxloAJdS-10" value="+ date of insription_teacher&lt;br&gt;: date" style="text;strokeColor=none;fillColor=none;align=left;verticalAlign=top;spacingLeft=4;spacingRight=4;overflow=hidden;rotatable=0;points=[[0,0.5],[1,0.5]];portConstraint=eastwest;whiteSpace=wrap;html=1;" parent="ax8WsIaLXXuVoxloAJdS-6" vertex="1">
                    <mxGeometry y="104" width="210" height="26" as="geometry"/>
                </mxCell>
                <mxCell id="ax8WsIaLXXuVoxloAJdS-11" value="Student" style="swimlane;fontStyle=0;childLayout=stackLayout;horizontal=1;startSize=26;fillColor=none;horizontalStack=0;resizeParent=1;resizeParentMax=0;resizeLast=0;collapsible=1;marginBottom=0;whiteSpace=wrap;html=1;" parent="1" vertex="1">
                    <mxGeometry x="1030" y="268" width="290" height="130" as="geometry"/>
                </mxCell>
                <mxCell id="ax8WsIaLXXuVoxloAJdS-12" value="+ Id_student: Int" style="text;strokeColor=none;fillColor=none;align=left;verticalAlign=top;spacingLeft=4;spacingRight=4;overflow=hidden;rotatable=0;points=[[0,0.5],[1,0.5]];portConstraint=eastwest;whiteSpace=wrap;html=1;" parent="ax8WsIaLXXuVoxloAJdS-11" vertex="1">
                    <mxGeometry y="26" width="290" height="26" as="geometry"/>
                </mxCell>
                <mxCell id="ax8WsIaLXXuVoxloAJdS-13" value="+ fullname_student: string varchar(20)" style="text;strokeColor=none;fillColor=none;align=left;verticalAlign=top;spacingLeft=4;spacingRight=4;overflow=hidden;rotatable=0;points=[[0,0.5],[1,0.5]];portConstraint=eastwest;whiteSpace=wrap;html=1;" parent="ax8WsIaLXXuVoxloAJdS-11" vertex="1">
                    <mxGeometry y="52" width="290" height="26" as="geometry"/>
                </mxCell>
                <mxCell id="ax8WsIaLXXuVoxloAJdS-14" value="+ adress_student&lt;br&gt;: string" style="text;strokeColor=none;fillColor=none;align=left;verticalAlign=top;spacingLeft=4;spacingRight=4;overflow=hidden;rotatable=0;points=[[0,0.5],[1,0.5]];portConstraint=eastwest;whiteSpace=wrap;html=1;" parent="ax8WsIaLXXuVoxloAJdS-11" vertex="1">
                    <mxGeometry y="78" width="290" height="26" as="geometry"/>
                </mxCell>
                <mxCell id="ax8WsIaLXXuVoxloAJdS-15" value="+ date of insription_student&lt;br&gt;: date" style="text;strokeColor=none;fillColor=none;align=left;verticalAlign=top;spacingLeft=4;spacingRight=4;overflow=hidden;rotatable=0;points=[[0,0.5],[1,0.5]];portConstraint=eastwest;whiteSpace=wrap;html=1;" parent="ax8WsIaLXXuVoxloAJdS-11" vertex="1">
                    <mxGeometry y="104" width="290" height="26" as="geometry"/>
                </mxCell>
                <mxCell id="QrcB6ABM1Lb8bdaMbwLG-70" style="edgeStyle=none;html=1;exitX=1;exitY=0.5;exitDx=0;exitDy=0;entryX=0.929;entryY=0.308;entryDx=0;entryDy=0;entryPerimeter=0;" parent="ax8WsIaLXXuVoxloAJdS-11" source="ax8WsIaLXXuVoxloAJdS-15" target="ax8WsIaLXXuVoxloAJdS-15" edge="1">
                    <mxGeometry relative="1" as="geometry"/>
                </mxCell>
                <mxCell id="ax8WsIaLXXuVoxloAJdS-16" value="Admin" style="swimlane;fontStyle=0;childLayout=stackLayout;horizontal=1;startSize=26;fillColor=none;horizontalStack=0;resizeParent=1;resizeParentMax=0;resizeLast=0;collapsible=1;marginBottom=0;whiteSpace=wrap;html=1;" parent="1" vertex="1">
                    <mxGeometry x="110" y="80" width="230" height="150" as="geometry"/>
                </mxCell>
                <mxCell id="ax8WsIaLXXuVoxloAJdS-17" value="+ Id_admin: Int" style="text;strokeColor=none;fillColor=none;align=left;verticalAlign=top;spacingLeft=4;spacingRight=4;overflow=hidden;rotatable=0;points=[[0,0.5],[1,0.5]];portConstraint=eastwest;whiteSpace=wrap;html=1;" parent="ax8WsIaLXXuVoxloAJdS-16" vertex="1">
                    <mxGeometry y="26" width="230" height="26" as="geometry"/>
                </mxCell>
                <mxCell id="ax8WsIaLXXuVoxloAJdS-18" value="+ fullname_admin: stringvarchar(20)" style="text;strokeColor=none;fillColor=none;align=left;verticalAlign=top;spacingLeft=4;spacingRight=4;overflow=hidden;rotatable=0;points=[[0,0.5],[1,0.5]];portConstraint=eastwest;whiteSpace=wrap;html=1;" parent="ax8WsIaLXXuVoxloAJdS-16" vertex="1">
                    <mxGeometry y="52" width="230" height="26" as="geometry"/>
                </mxCell>
                <mxCell id="ax8WsIaLXXuVoxloAJdS-19" value="+ adress_admin&lt;br&gt;: string" style="text;strokeColor=none;fillColor=none;align=left;verticalAlign=top;spacingLeft=4;spacingRight=4;overflow=hidden;rotatable=0;points=[[0,0.5],[1,0.5]];portConstraint=eastwest;whiteSpace=wrap;html=1;" parent="ax8WsIaLXXuVoxloAJdS-16" vertex="1">
                    <mxGeometry y="78" width="230" height="26" as="geometry"/>
                </mxCell>
                <mxCell id="ax8WsIaLXXuVoxloAJdS-20" value="+ date of insription_teacher:&lt;br&gt;: date" style="text;strokeColor=none;fillColor=none;align=left;verticalAlign=top;spacingLeft=4;spacingRight=4;overflow=hidden;rotatable=0;points=[[0,0.5],[1,0.5]];portConstraint=eastwest;whiteSpace=wrap;html=1;" parent="ax8WsIaLXXuVoxloAJdS-16" vertex="1">
                    <mxGeometry y="104" width="230" height="46" as="geometry"/>
                </mxCell>
                <mxCell id="zBfOL2RnZFmQmZEoAP4f-1" value="Examen" style="swimlane;fontStyle=1;align=center;verticalAlign=top;childLayout=stackLayout;horizontal=1;startSize=26;horizontalStack=0;resizeParent=1;resizeParentMax=0;resizeLast=0;collapsible=1;marginBottom=0;whiteSpace=wrap;html=1;" parent="1" vertex="1">
                    <mxGeometry x="-60" y="534" width="160" height="138" as="geometry"/>
                </mxCell>
                <mxCell id="68" value="+ Id_Examen: INT" style="text;strokeColor=none;fillColor=none;align=left;verticalAlign=top;spacingLeft=4;spacingRight=4;overflow=hidden;rotatable=0;points=[[0,0.5],[1,0.5]];portConstraint=eastwest;whiteSpace=wrap;html=1;" parent="zBfOL2RnZFmQmZEoAP4f-1" vertex="1">
                    <mxGeometry y="26" width="160" height="26" as="geometry"/>
                </mxCell>
                <mxCell id="zBfOL2RnZFmQmZEoAP4f-2" value="+ date/hour: date" style="text;strokeColor=none;fillColor=none;align=left;verticalAlign=top;spacingLeft=4;spacingRight=4;overflow=hidden;rotatable=0;points=[[0,0.5],[1,0.5]];portConstraint=eastwest;whiteSpace=wrap;html=1;" parent="zBfOL2RnZFmQmZEoAP4f-1" vertex="1">
                    <mxGeometry y="52" width="160" height="26" as="geometry"/>
                </mxCell>
                <mxCell id="zBfOL2RnZFmQmZEoAP4f-3" value="" style="line;strokeWidth=1;fillColor=none;align=left;verticalAlign=middle;spacingTop=-1;spacingLeft=3;spacingRight=3;rotatable=0;labelPosition=right;points=[];portConstraint=eastwest;strokeColor=inherit;" parent="zBfOL2RnZFmQmZEoAP4f-1" vertex="1">
                    <mxGeometry y="78" width="160" height="8" as="geometry"/>
                </mxCell>
                <mxCell id="zBfOL2RnZFmQmZEoAP4f-4" value="+ Place: stringvarchar(50)" style="text;strokeColor=none;fillColor=none;align=left;verticalAlign=top;spacingLeft=4;spacingRight=4;overflow=hidden;rotatable=0;points=[[0,0.5],[1,0.5]];portConstraint=eastwest;whiteSpace=wrap;html=1;" parent="zBfOL2RnZFmQmZEoAP4f-1" vertex="1">
                    <mxGeometry y="86" width="160" height="26" as="geometry"/>
                </mxCell>
                <mxCell id="67" value="+ name: string" style="text;strokeColor=none;fillColor=none;align=left;verticalAlign=top;spacingLeft=4;spacingRight=4;overflow=hidden;rotatable=0;points=[[0,0.5],[1,0.5]];portConstraint=eastwest;whiteSpace=wrap;html=1;" parent="zBfOL2RnZFmQmZEoAP4f-1" vertex="1">
                    <mxGeometry y="112" width="160" height="26" as="geometry"/>
                </mxCell>
                <mxCell id="uU7Nvvg_VOm02wRGnIb--1" value="Score" style="swimlane;fontStyle=1;align=center;verticalAlign=top;childLayout=stackLayout;horizontal=1;startSize=26;horizontalStack=0;resizeParent=1;resizeParentMax=0;resizeLast=0;collapsible=1;marginBottom=0;whiteSpace=wrap;html=1;" parent="1" vertex="1">
                    <mxGeometry x="690" y="560" width="160" height="86" as="geometry"/>
                </mxCell>
                <mxCell id="uU7Nvvg_VOm02wRGnIb--2" value="&amp;nbsp;#id_student: foreignKey" style="text;strokeColor=none;fillColor=none;align=left;verticalAlign=top;spacingLeft=4;spacingRight=4;overflow=hidden;rotatable=0;points=[[0,0.5],[1,0.5]];portConstraint=eastwest;whiteSpace=wrap;html=1;" parent="uU7Nvvg_VOm02wRGnIb--1" vertex="1">
                    <mxGeometry y="26" width="160" height="26" as="geometry"/>
                </mxCell>
                <mxCell id="uU7Nvvg_VOm02wRGnIb--3" value="" style="line;strokeWidth=1;fillColor=none;align=left;verticalAlign=middle;spacingTop=-1;spacingLeft=3;spacingRight=3;rotatable=0;labelPosition=right;points=[];portConstraint=eastwest;strokeColor=inherit;" parent="uU7Nvvg_VOm02wRGnIb--1" vertex="1">
                    <mxGeometry y="52" width="160" height="8" as="geometry"/>
                </mxCell>
                <mxCell id="uU7Nvvg_VOm02wRGnIb--4" value="Note: Intg" style="text;strokeColor=none;fillColor=none;align=left;verticalAlign=top;spacingLeft=4;spacingRight=4;overflow=hidden;rotatable=0;points=[[0,0.5],[1,0.5]];portConstraint=eastwest;whiteSpace=wrap;html=1;" parent="uU7Nvvg_VOm02wRGnIb--1" vertex="1">
                    <mxGeometry y="60" width="160" height="26" as="geometry"/>
                </mxCell>
                <mxCell id="_cYn4xuvi664SEVkJodZ-3" style="edgeStyle=none;html=1;exitX=0.5;exitY=1;exitDx=0;exitDy=0;" parent="1" source="_cYn4xuvi664SEVkJodZ-1" target="zBfOL2RnZFmQmZEoAP4f-1" edge="1">
                    <mxGeometry relative="1" as="geometry"/>
                </mxCell>
                <mxCell id="_cYn4xuvi664SEVkJodZ-1" value="&lt;div&gt;add questions&lt;/div&gt;" style="ellipse;whiteSpace=wrap;html=1;" parent="1" vertex="1">
                    <mxGeometry x="100" y="391" width="80" height="64" as="geometry"/>
                </mxCell>
                <mxCell id="cv7NprM7sbz5OuTS-VyP-4" style="edgeStyle=none;html=1;exitX=0.5;exitY=1;exitDx=0;exitDy=0;entryX=0.5;entryY=0;entryDx=0;entryDy=0;" parent="1" source="ulmXsU17ZuT1MIeXuGrp-1" target="ax8WsIaLXXuVoxloAJdS-6" edge="1">
                    <mxGeometry relative="1" as="geometry"/>
                </mxCell>
                <mxCell id="cv7NprM7sbz5OuTS-VyP-5" style="edgeStyle=none;html=1;exitX=1;exitY=0.5;exitDx=0;exitDy=0;entryX=0.5;entryY=0;entryDx=0;entryDy=0;" parent="1" source="ulmXsU17ZuT1MIeXuGrp-1" target="ax8WsIaLXXuVoxloAJdS-11" edge="1">
                    <mxGeometry relative="1" as="geometry"/>
                </mxCell>
                <mxCell id="ulmXsU17ZuT1MIeXuGrp-1" value="register&lt;div&gt;&lt;div&gt;modify&lt;/div&gt;&lt;div&gt;delete&lt;/div&gt;&lt;/div&gt;" style="ellipse;whiteSpace=wrap;html=1;" parent="1" vertex="1">
                    <mxGeometry x="510" y="155" width="60" height="65" as="geometry"/>
                </mxCell>
                <mxCell id="cv7NprM7sbz5OuTS-VyP-3" style="edgeStyle=none;html=1;exitX=1;exitY=0.5;exitDx=0;exitDy=0;entryX=0;entryY=0.5;entryDx=0;entryDy=0;" parent="1" source="ax8WsIaLXXuVoxloAJdS-18" target="ulmXsU17ZuT1MIeXuGrp-1" edge="1">
                    <mxGeometry relative="1" as="geometry"/>
                </mxCell>
                <mxCell id="YBCSbpK7bjYAT15zlKTE-3" style="edgeStyle=none;html=1;exitX=0.5;exitY=1;exitDx=0;exitDy=0;entryX=0.5;entryY=0;entryDx=0;entryDy=0;" parent="1" source="YBCSbpK7bjYAT15zlKTE-1" target="uU7Nvvg_VOm02wRGnIb--1" edge="1">
                    <mxGeometry relative="1" as="geometry">
                        <mxPoint x="650" y="550" as="targetPoint"/>
                    </mxGeometry>
                </mxCell>
                <mxCell id="YBCSbpK7bjYAT15zlKTE-1" value="generate" style="ellipse;whiteSpace=wrap;html=1;" parent="1" vertex="1">
                    <mxGeometry x="728" y="471" width="84" height="39" as="geometry"/>
                </mxCell>
                <mxCell id="ocHOKBr9W0ronMO45GEt-1" value="1.N" style="text;align=center;fontStyle=1;verticalAlign=middle;spacingLeft=3;spacingRight=3;strokeColor=none;rotatable=0;points=[[0,0.5],[1,0.5]];portConstraint=eastwest;html=1;" parent="1" vertex="1">
                    <mxGeometry x="310" y="140" width="80" height="26" as="geometry"/>
                </mxCell>
                <mxCell id="ocHOKBr9W0ronMO45GEt-2" value="1.N" style="text;align=center;fontStyle=1;verticalAlign=middle;spacingLeft=3;spacingRight=3;strokeColor=none;rotatable=0;points=[[0,0.5],[1,0.5]];portConstraint=eastwest;html=1;" parent="1" vertex="1">
                    <mxGeometry x="20" y="500" width="80" height="26" as="geometry"/>
                </mxCell>
                <mxCell id="ocHOKBr9W0ronMO45GEt-5" value="1.N" style="text;align=center;fontStyle=1;verticalAlign=middle;spacingLeft=3;spacingRight=3;strokeColor=none;rotatable=0;points=[[0,0.5],[1,0.5]];portConstraint=eastwest;html=1;" parent="1" vertex="1">
                    <mxGeometry x="1080" y="403.5" width="80" height="26" as="geometry"/>
                </mxCell>
                <mxCell id="x4CKUcN3C08TMO2JRy3O-3" style="edgeStyle=none;html=1;exitX=1;exitY=0.5;exitDx=0;exitDy=0;entryX=0;entryY=0.5;entryDx=0;entryDy=0;" parent="1" source="x4CKUcN3C08TMO2JRy3O-1" target="ax8WsIaLXXuVoxloAJdS-13" edge="1">
                    <mxGeometry relative="1" as="geometry"/>
                </mxCell>
                <mxCell id="x4CKUcN3C08TMO2JRy3O-1" value="evaluate" style="ellipse;whiteSpace=wrap;html=1;" parent="1" vertex="1">
                    <mxGeometry x="660" y="325.5" width="84" height="39" as="geometry"/>
                </mxCell>
                <mxCell id="x4CKUcN3C08TMO2JRy3O-2" style="edgeStyle=none;html=1;exitX=1;exitY=0.5;exitDx=0;exitDy=0;entryX=0;entryY=0.5;entryDx=0;entryDy=0;" parent="1" source="ax8WsIaLXXuVoxloAJdS-8" target="x4CKUcN3C08TMO2JRy3O-1" edge="1">
                    <mxGeometry relative="1" as="geometry"/>
                </mxCell>
                <mxCell id="-mycP6H4PPE0C5dfrg72-1" value="Groupe" style="swimlane;fontStyle=1;align=center;verticalAlign=top;childLayout=stackLayout;horizontal=1;startSize=26;horizontalStack=0;resizeParent=1;resizeParentMax=0;resizeLast=0;collapsible=1;marginBottom=0;whiteSpace=wrap;html=1;" parent="1" vertex="1">
                    <mxGeometry x="700" y="720" width="160" height="138" as="geometry"/>
                </mxCell>
                <mxCell id="-mycP6H4PPE0C5dfrg72-2" value="+ Id_groupe: Int" style="text;strokeColor=none;fillColor=none;align=left;verticalAlign=top;spacingLeft=4;spacingRight=4;overflow=hidden;rotatable=0;points=[[0,0.5],[1,0.5]];portConstraint=eastwest;whiteSpace=wrap;html=1;" parent="-mycP6H4PPE0C5dfrg72-1" vertex="1">
                    <mxGeometry y="26" width="160" height="26" as="geometry"/>
                </mxCell>
                <mxCell id="-mycP6H4PPE0C5dfrg72-3" value="" style="line;strokeWidth=1;fillColor=none;align=left;verticalAlign=middle;spacingTop=-1;spacingLeft=3;spacingRight=3;rotatable=0;labelPosition=right;points=[];portConstraint=eastwest;strokeColor=inherit;" parent="-mycP6H4PPE0C5dfrg72-1" vertex="1">
                    <mxGeometry y="52" width="160" height="8" as="geometry"/>
                </mxCell>
                <mxCell id="-mycP6H4PPE0C5dfrg72-4" value="Yearof creation: date" style="text;strokeColor=none;fillColor=none;align=left;verticalAlign=top;spacingLeft=4;spacingRight=4;overflow=hidden;rotatable=0;points=[[0,0.5],[1,0.5]];portConstraint=eastwest;whiteSpace=wrap;html=1;" parent="-mycP6H4PPE0C5dfrg72-1" vertex="1">
                    <mxGeometry y="60" width="160" height="26" as="geometry"/>
                </mxCell>
                <mxCell id="-mycP6H4PPE0C5dfrg72-5" value="id_Teacher:ForeignKey: Int" style="text;strokeColor=none;fillColor=none;align=left;verticalAlign=top;spacingLeft=4;spacingRight=4;overflow=hidden;rotatable=0;points=[[0,0.5],[1,0.5]];portConstraint=eastwest;whiteSpace=wrap;html=1;" parent="-mycP6H4PPE0C5dfrg72-1" vertex="1">
                    <mxGeometry y="86" width="160" height="26" as="geometry"/>
                </mxCell>
                <mxCell id="-mycP6H4PPE0C5dfrg72-6" value="id_Student:ForeignKey: Int" style="text;strokeColor=none;fillColor=none;align=left;verticalAlign=top;spacingLeft=4;spacingRight=4;overflow=hidden;rotatable=0;points=[[0,0.5],[1,0.5]];portConstraint=eastwest;whiteSpace=wrap;html=1;" parent="-mycP6H4PPE0C5dfrg72-1" vertex="1">
                    <mxGeometry y="112" width="160" height="26" as="geometry"/>
                </mxCell>
                <mxCell id="ZlK6ysFfokkdWHHGD4ne-4" style="edgeStyle=none;html=1;entryX=0;entryY=0.5;entryDx=0;entryDy=0;" parent="1" source="ZlK6ysFfokkdWHHGD4ne-1" target="-mycP6H4PPE0C5dfrg72-4" edge="1">
                    <mxGeometry relative="1" as="geometry"/>
                </mxCell>
                <mxCell id="ZlK6ysFfokkdWHHGD4ne-1" value="assign" style="ellipse;whiteSpace=wrap;html=1;" parent="1" vertex="1">
                    <mxGeometry x="530" y="636" width="84" height="39" as="geometry"/>
                </mxCell>
                <mxCell id="j05PppPbyiEv9mQckrVn-3" style="edgeStyle=none;html=1;exitX=0.5;exitY=1;exitDx=0;exitDy=0;entryX=1;entryY=0.5;entryDx=0;entryDy=0;" parent="1" source="j05PppPbyiEv9mQckrVn-1" target="-mycP6H4PPE0C5dfrg72-4" edge="1">
                    <mxGeometry relative="1" as="geometry"/>
                </mxCell>
                <mxCell id="j05PppPbyiEv9mQckrVn-1" value="enroll/ date enrollement" style="ellipse;whiteSpace=wrap;html=1;" parent="1" vertex="1">
                    <mxGeometry x="980" y="636" width="80" height="57" as="geometry"/>
                </mxCell>
                <mxCell id="j05PppPbyiEv9mQckrVn-2" style="edgeStyle=none;html=1;exitX=0.84;exitY=1.016;exitDx=0;exitDy=0;entryX=0.5;entryY=0;entryDx=0;entryDy=0;exitPerimeter=0;" parent="1" source="ax8WsIaLXXuVoxloAJdS-15" target="j05PppPbyiEv9mQckrVn-1" edge="1">
                    <mxGeometry relative="1" as="geometry"/>
                </mxCell>
                <mxCell id="S0CIofremQxvuUcp6Spo-3" style="edgeStyle=none;html=1;exitX=1;exitY=1;exitDx=0;exitDy=0;entryX=0;entryY=0.5;entryDx=0;entryDy=0;" parent="1" source="S0CIofremQxvuUcp6Spo-1" target="uU7Nvvg_VOm02wRGnIb--2" edge="1">
                    <mxGeometry relative="1" as="geometry"/>
                </mxCell>
                <mxCell id="S0CIofremQxvuUcp6Spo-1" value="subscribe/manage" style="ellipse;whiteSpace=wrap;html=1;" parent="1" vertex="1">
                    <mxGeometry x="350" y="510" width="120" height="40" as="geometry"/>
                </mxCell>
                <mxCell id="S0CIofremQxvuUcp6Spo-2" style="edgeStyle=none;html=1;exitX=0.849;exitY=1.016;exitDx=0;exitDy=0;entryX=0.5;entryY=0;entryDx=0;entryDy=0;exitPerimeter=0;" parent="1" source="ax8WsIaLXXuVoxloAJdS-20" target="S0CIofremQxvuUcp6Spo-1" edge="1">
                    <mxGeometry relative="1" as="geometry"/>
                </mxCell>
                <mxCell id="CX2jHG3AxNclBGFqEmQt-3" style="edgeStyle=none;html=1;exitX=0.5;exitY=1;exitDx=0;exitDy=0;entryX=0;entryY=0.5;entryDx=0;entryDy=0;" parent="1" source="CX2jHG3AxNclBGFqEmQt-1" target="-mycP6H4PPE0C5dfrg72-5" edge="1">
                    <mxGeometry relative="1" as="geometry"/>
                </mxCell>
                <mxCell id="CX2jHG3AxNclBGFqEmQt-1" value="Create/manage" style="ellipse;whiteSpace=wrap;html=1;" parent="1" vertex="1">
                    <mxGeometry x="230" y="630" width="96" height="39" as="geometry"/>
                </mxCell>
                <mxCell id="CX2jHG3AxNclBGFqEmQt-2" style="edgeStyle=none;html=1;exitX=0.571;exitY=1;exitDx=0;exitDy=0;entryX=0.5;entryY=0;entryDx=0;entryDy=0;exitPerimeter=0;" parent="1" source="ax8WsIaLXXuVoxloAJdS-20" target="CX2jHG3AxNclBGFqEmQt-1" edge="1">
                    <mxGeometry relative="1" as="geometry"/>
                </mxCell>
                <mxCell id="x1XusHQQjt-1QjO7aftu-3" value="1.N" style="text;align=center;fontStyle=1;verticalAlign=middle;spacingLeft=3;spacingRight=3;strokeColor=none;rotatable=0;points=[[0,0.5],[1,0.5]];portConstraint=eastwest;html=1;" parent="1" vertex="1">
                    <mxGeometry x="1040" y="242" width="80" height="26" as="geometry"/>
                </mxCell>
                <mxCell id="x1XusHQQjt-1QjO7aftu-4" value="1.N" style="text;align=center;fontStyle=1;verticalAlign=middle;spacingLeft=3;spacingRight=3;strokeColor=none;rotatable=0;points=[[0,0.5],[1,0.5]];portConstraint=eastwest;html=1;" parent="1" vertex="1">
                    <mxGeometry x="460" y="247.5" width="80" height="26" as="geometry"/>
                </mxCell>
                <mxCell id="x1XusHQQjt-1QjO7aftu-5" value="1.N" style="text;align=center;fontStyle=1;verticalAlign=middle;spacingLeft=3;spacingRight=3;strokeColor=none;rotatable=0;points=[[0,0.5],[1,0.5]];portConstraint=eastwest;html=1;" parent="1" vertex="1">
                    <mxGeometry x="300" y="230" width="80" height="26" as="geometry"/>
                </mxCell>
                <mxCell id="x1XusHQQjt-1QjO7aftu-6" value="1.N" style="text;align=center;fontStyle=1;verticalAlign=middle;spacingLeft=3;spacingRight=3;strokeColor=none;rotatable=0;points=[[0,0.5],[1,0.5]];portConstraint=eastwest;html=1;" parent="1" vertex="1">
                    <mxGeometry x="220" y="247.5" width="80" height="26" as="geometry"/>
                </mxCell>
                <mxCell id="x1XusHQQjt-1QjO7aftu-11" style="edgeStyle=none;html=1;entryX=1;entryY=0;entryDx=0;entryDy=0;startArrow=none;" parent="1" source="x1XusHQQjt-1QjO7aftu-12" target="_cYn4xuvi664SEVkJodZ-1" edge="1">
                    <mxGeometry relative="1" as="geometry"/>
                </mxCell>
                <mxCell id="x1XusHQQjt-1QjO7aftu-13" value="1.N" style="text;align=center;fontStyle=1;verticalAlign=middle;spacingLeft=3;spacingRight=3;strokeColor=none;rotatable=0;points=[[0,0.5],[1,0.5]];portConstraint=eastwest;html=1;" parent="1" vertex="1">
                    <mxGeometry x="460" y="410" width="80" height="26" as="geometry"/>
                </mxCell>
                <mxCell id="x1XusHQQjt-1QjO7aftu-14" style="edgeStyle=none;html=1;entryX=0.5;entryY=0;entryDx=0;entryDy=0;exitX=0.5;exitY=1;exitDx=0;exitDy=0;exitPerimeter=0;" parent="1" source="ax8WsIaLXXuVoxloAJdS-10" target="ZlK6ysFfokkdWHHGD4ne-1" edge="1">
                    <mxGeometry relative="1" as="geometry">
                        <mxPoint x="540" y="440" as="sourcePoint"/>
                    </mxGeometry>
                </mxCell>
                <mxCell id="x1XusHQQjt-1QjO7aftu-15" value="1.1" style="text;align=center;fontStyle=1;verticalAlign=middle;spacingLeft=3;spacingRight=3;strokeColor=none;rotatable=0;points=[[0,0.5],[1,0.5]];portConstraint=eastwest;html=1;" parent="1" vertex="1">
                    <mxGeometry x="640" y="820" width="80" height="26" as="geometry"/>
                </mxCell>
                <mxCell id="x1XusHQQjt-1QjO7aftu-17" value="1.N" style="text;align=center;fontStyle=1;verticalAlign=middle;spacingLeft=3;spacingRight=3;strokeColor=none;rotatable=0;points=[[0,0.5],[1,0.5]];portConstraint=eastwest;html=1;" parent="1" vertex="1">
                    <mxGeometry x="570" y="350" width="80" height="26" as="geometry"/>
                </mxCell>
                <mxCell id="x1XusHQQjt-1QjO7aftu-18" value="1.N" style="text;align=center;fontStyle=1;verticalAlign=middle;spacingLeft=3;spacingRight=3;strokeColor=none;rotatable=0;points=[[0,0.5],[1,0.5]];portConstraint=eastwest;html=1;" parent="1" vertex="1">
                    <mxGeometry x="970" y="299.5" width="80" height="26" as="geometry"/>
                </mxCell>
                <mxCell id="3" style="edgeStyle=none;html=1;exitX=0;exitY=0.5;exitDx=0;exitDy=0;entryX=1;entryY=0.5;entryDx=0;entryDy=0;" parent="1" source="ax8WsIaLXXuVoxloAJdS-14" target="YBCSbpK7bjYAT15zlKTE-1" edge="1">
                    <mxGeometry relative="1" as="geometry"/>
                </mxCell>
                <mxCell id="4" value="1.N" style="text;align=center;fontStyle=1;verticalAlign=middle;spacingLeft=3;spacingRight=3;strokeColor=none;rotatable=0;points=[[0,0.5],[1,0.5]];portConstraint=eastwest;html=1;" parent="1" vertex="1">
                    <mxGeometry x="750" y="534" width="80" height="26" as="geometry"/>
                </mxCell>
                <mxCell id="6" value="1.1" style="text;align=center;fontStyle=1;verticalAlign=middle;spacingLeft=3;spacingRight=3;strokeColor=none;rotatable=0;points=[[0,0.5],[1,0.5]];portConstraint=eastwest;html=1;" parent="1" vertex="1">
                    <mxGeometry x="840" y="800" width="80" height="26" as="geometry"/>
                </mxCell>
                <mxCell id="69" value="1.1" style="text;align=center;fontStyle=1;verticalAlign=middle;spacingLeft=3;spacingRight=3;strokeColor=none;rotatable=0;points=[[0,0.5],[1,0.5]];portConstraint=eastwest;html=1;" parent="1" vertex="1">
                    <mxGeometry x="640" y="740" width="80" height="26" as="geometry"/>
                </mxCell>
                <mxCell id="70" value="1.N" style="text;align=center;fontStyle=1;verticalAlign=middle;spacingLeft=3;spacingRight=3;strokeColor=none;rotatable=0;points=[[0,0.5],[1,0.5]];portConstraint=eastwest;html=1;" parent="1" vertex="1">
                    <mxGeometry x="970" y="376" width="80" height="26" as="geometry"/>
                </mxCell>
                <mxCell id="QrcB6ABM1Lb8bdaMbwLG-71" value="" style="edgeStyle=none;html=1;exitX=0;exitY=0.5;exitDx=0;exitDy=0;entryX=1;entryY=0;entryDx=0;entryDy=0;endArrow=none;" parent="1" source="ax8WsIaLXXuVoxloAJdS-8" target="x1XusHQQjt-1QjO7aftu-12" edge="1">
                    <mxGeometry relative="1" as="geometry">
                        <mxPoint x="410" y="325" as="sourcePoint"/>
                        <mxPoint x="168.53792642438475" y="400.57734352369766" as="targetPoint"/>
                    </mxGeometry>
                </mxCell>
                <mxCell id="x1XusHQQjt-1QjO7aftu-12" value="1.N" style="text;align=center;fontStyle=1;verticalAlign=middle;spacingLeft=3;spacingRight=3;strokeColor=none;rotatable=0;points=[[0,0.5],[1,0.5]];portConstraint=eastwest;html=1;" parent="1" vertex="1">
                    <mxGeometry x="320" y="299.5" width="80" height="26" as="geometry"/>
                </mxCell>
            </root>
        </mxGraphModel>
    </diagram>
    <diagram id="Sx__AM7tNyRv9mXKaYxe" name="MLD">
        <mxGraphModel dx="2368" dy="1747" grid="1" gridSize="10" guides="1" tooltips="1" connect="1" arrows="1" fold="1" page="1" pageScale="1" pageWidth="850" pageHeight="1100" math="0" shadow="0">
            <root>
                <mxCell id="0"/>
                <mxCell id="1" parent="0"/>
                <mxCell id="wtRP7KLYoaJ9AERdt9XS-1" style="edgeStyle=none;html=1;entryX=0.5;entryY=0;entryDx=0;entryDy=0;" parent="1" source="wtRP7KLYoaJ9AERdt9XS-2" target="wtRP7KLYoaJ9AERdt9XS-16" edge="1">
                    <mxGeometry relative="1" as="geometry">
                        <mxPoint x="680" y="432" as="targetPoint"/>
                    </mxGeometry>
                </mxCell>
                <mxCell id="wtRP7KLYoaJ9AERdt9XS-2" value="teacher" style="swimlane;fontStyle=0;childLayout=stackLayout;horizontal=1;startSize=26;fillColor=none;horizontalStack=0;resizeParent=1;resizeParentMax=0;resizeLast=0;collapsible=1;marginBottom=0;whiteSpace=wrap;html=1;" parent="1" vertex="1">
                    <mxGeometry x="450" y="172" width="190" height="156" as="geometry"/>
                </mxCell>
                <mxCell id="wtRP7KLYoaJ9AERdt9XS-3" value="+ Id_admin: Int" style="text;strokeColor=none;fillColor=none;align=left;verticalAlign=top;spacingLeft=4;spacingRight=4;overflow=hidden;rotatable=0;points=[[0,0.5],[1,0.5]];portConstraint=eastwest;whiteSpace=wrap;html=1;" parent="wtRP7KLYoaJ9AERdt9XS-2" vertex="1">
                    <mxGeometry y="26" width="190" height="26" as="geometry"/>
                </mxCell>
                <mxCell id="wtRP7KLYoaJ9AERdt9XS-4" value="+ full_name: string" style="text;strokeColor=none;fillColor=none;align=left;verticalAlign=top;spacingLeft=4;spacingRight=4;overflow=hidden;rotatable=0;points=[[0,0.5],[1,0.5]];portConstraint=eastwest;whiteSpace=wrap;html=1;" parent="wtRP7KLYoaJ9AERdt9XS-2" vertex="1">
                    <mxGeometry y="52" width="190" height="26" as="geometry"/>
                </mxCell>
                <mxCell id="wtRP7KLYoaJ9AERdt9XS-5" value="+ adress: string" style="text;strokeColor=none;fillColor=none;align=left;verticalAlign=top;spacingLeft=4;spacingRight=4;overflow=hidden;rotatable=0;points=[[0,0.5],[1,0.5]];portConstraint=eastwest;whiteSpace=wrap;html=1;" parent="wtRP7KLYoaJ9AERdt9XS-2" vertex="1">
                    <mxGeometry y="78" width="190" height="26" as="geometry"/>
                </mxCell>
                <mxCell id="wtRP7KLYoaJ9AERdt9XS-6" value="+ date_of_insription: date" style="text;strokeColor=none;fillColor=none;align=left;verticalAlign=top;spacingLeft=4;spacingRight=4;overflow=hidden;rotatable=0;points=[[0,0.5],[1,0.5]];portConstraint=eastwest;whiteSpace=wrap;html=1;" parent="wtRP7KLYoaJ9AERdt9XS-2" vertex="1">
                    <mxGeometry y="104" width="190" height="26" as="geometry"/>
                </mxCell>
                <mxCell id="8aQXVgyjP0tC8XVo59yX-3" value="&lt;span style=&quot;color: rgb(240, 240, 240); font-family: Helvetica; font-size: 12px; font-style: normal; font-variant-ligatures: normal; font-variant-caps: normal; font-weight: 400; letter-spacing: normal; orphans: 2; text-align: left; text-indent: 0px; text-transform: none; widows: 2; word-spacing: 0px; -webkit-text-stroke-width: 0px; background-color: rgb(42, 37, 47); text-decoration-thickness: initial; text-decoration-style: initial; text-decoration-color: initial; float: none; display: inline !important;&quot;&gt;&amp;nbsp;#ID_ADMIN: foreignKey&lt;/span&gt;" style="text;strokeColor=none;fillColor=none;align=left;verticalAlign=top;spacingLeft=4;spacingRight=4;overflow=hidden;rotatable=0;points=[[0,0.5],[1,0.5]];portConstraint=eastwest;whiteSpace=wrap;html=1;" parent="wtRP7KLYoaJ9AERdt9XS-2" vertex="1">
                    <mxGeometry y="130" width="190" height="26" as="geometry"/>
                </mxCell>
                <mxCell id="wtRP7KLYoaJ9AERdt9XS-7" value="Student" style="swimlane;fontStyle=0;childLayout=stackLayout;horizontal=1;startSize=26;fillColor=none;horizontalStack=0;resizeParent=1;resizeParentMax=0;resizeLast=0;collapsible=1;marginBottom=0;whiteSpace=wrap;html=1;" parent="1" vertex="1">
                    <mxGeometry x="1030" y="268" width="220" height="130" as="geometry"/>
                </mxCell>
                <mxCell id="wtRP7KLYoaJ9AERdt9XS-8" value="+ Id_student: Int" style="text;strokeColor=none;fillColor=none;align=left;verticalAlign=top;spacingLeft=4;spacingRight=4;overflow=hidden;rotatable=0;points=[[0,0.5],[1,0.5]];portConstraint=eastwest;whiteSpace=wrap;html=1;" parent="wtRP7KLYoaJ9AERdt9XS-7" vertex="1">
                    <mxGeometry y="26" width="220" height="26" as="geometry"/>
                </mxCell>
                <mxCell id="wtRP7KLYoaJ9AERdt9XS-9" value="+ full_name: string" style="text;strokeColor=none;fillColor=none;align=left;verticalAlign=top;spacingLeft=4;spacingRight=4;overflow=hidden;rotatable=0;points=[[0,0.5],[1,0.5]];portConstraint=eastwest;whiteSpace=wrap;html=1;" parent="wtRP7KLYoaJ9AERdt9XS-7" vertex="1">
                    <mxGeometry y="52" width="220" height="26" as="geometry"/>
                </mxCell>
                <mxCell id="wtRP7KLYoaJ9AERdt9XS-10" value="+ adress: string" style="text;strokeColor=none;fillColor=none;align=left;verticalAlign=top;spacingLeft=4;spacingRight=4;overflow=hidden;rotatable=0;points=[[0,0.5],[1,0.5]];portConstraint=eastwest;whiteSpace=wrap;html=1;" parent="wtRP7KLYoaJ9AERdt9XS-7" vertex="1">
                    <mxGeometry y="78" width="220" height="26" as="geometry"/>
                </mxCell>
                <mxCell id="wtRP7KLYoaJ9AERdt9XS-11" value="+ date_of_insription: date" style="text;strokeColor=none;fillColor=none;align=left;verticalAlign=top;spacingLeft=4;spacingRight=4;overflow=hidden;rotatable=0;points=[[0,0.5],[1,0.5]];portConstraint=eastwest;whiteSpace=wrap;html=1;" parent="wtRP7KLYoaJ9AERdt9XS-7" vertex="1">
                    <mxGeometry y="104" width="220" height="26" as="geometry"/>
                </mxCell>
                <mxCell id="wtRP7KLYoaJ9AERdt9XS-16" value="Score" style="swimlane;fontStyle=1;align=center;verticalAlign=top;childLayout=stackLayout;horizontal=1;startSize=26;horizontalStack=0;resizeParent=1;resizeParentMax=0;resizeLast=0;collapsible=1;marginBottom=0;whiteSpace=wrap;html=1;" parent="1" vertex="1">
                    <mxGeometry x="750" y="370" width="160" height="138" as="geometry"/>
                </mxCell>
                <mxCell id="wtRP7KLYoaJ9AERdt9XS-17" value="&amp;nbsp;#id_admin: foreignKey" style="text;strokeColor=none;fillColor=none;align=left;verticalAlign=top;spacingLeft=4;spacingRight=4;overflow=hidden;rotatable=0;points=[[0,0.5],[1,0.5]];portConstraint=eastwest;whiteSpace=wrap;html=1;" parent="wtRP7KLYoaJ9AERdt9XS-16" vertex="1">
                    <mxGeometry y="26" width="160" height="26" as="geometry"/>
                </mxCell>
                <mxCell id="wtRP7KLYoaJ9AERdt9XS-18" value="" style="line;strokeWidth=1;fillColor=none;align=left;verticalAlign=middle;spacingTop=-1;spacingLeft=3;spacingRight=3;rotatable=0;labelPosition=right;points=[];portConstraint=eastwest;strokeColor=inherit;" parent="wtRP7KLYoaJ9AERdt9XS-16" vertex="1">
                    <mxGeometry y="52" width="160" height="8" as="geometry"/>
                </mxCell>
                <mxCell id="8aQXVgyjP0tC8XVo59yX-1" value="&amp;nbsp;#id_teacher: foreignKey" style="text;strokeColor=none;fillColor=none;align=left;verticalAlign=top;spacingLeft=4;spacingRight=4;overflow=hidden;rotatable=0;points=[[0,0.5],[1,0.5]];portConstraint=eastwest;whiteSpace=wrap;html=1;" parent="wtRP7KLYoaJ9AERdt9XS-16" vertex="1">
                    <mxGeometry y="60" width="160" height="26" as="geometry"/>
                </mxCell>
                <mxCell id="8aQXVgyjP0tC8XVo59yX-2" value="&amp;nbsp;#id_student: foreignKey" style="text;strokeColor=none;fillColor=none;align=left;verticalAlign=top;spacingLeft=4;spacingRight=4;overflow=hidden;rotatable=0;points=[[0,0.5],[1,0.5]];portConstraint=eastwest;whiteSpace=wrap;html=1;" parent="wtRP7KLYoaJ9AERdt9XS-16" vertex="1">
                    <mxGeometry y="86" width="160" height="26" as="geometry"/>
                </mxCell>
                <mxCell id="wtRP7KLYoaJ9AERdt9XS-19" value="Note: Intg" style="text;strokeColor=none;fillColor=none;align=left;verticalAlign=top;spacingLeft=4;spacingRight=4;overflow=hidden;rotatable=0;points=[[0,0.5],[1,0.5]];portConstraint=eastwest;whiteSpace=wrap;html=1;" parent="wtRP7KLYoaJ9AERdt9XS-16" vertex="1">
                    <mxGeometry y="112" width="160" height="26" as="geometry"/>
                </mxCell>
                <mxCell id="wtRP7KLYoaJ9AERdt9XS-20" style="edgeStyle=none;html=1;exitX=0.503;exitY=0.973;exitDx=0;exitDy=0;exitPerimeter=0;entryX=0.75;entryY=0;entryDx=0;entryDy=0;" parent="1" source="_Pthzp7HTup5jgblxtk6-15" target="tUN1H8zujMNtEXYkeq2i-1" edge="1">
                    <mxGeometry relative="1" as="geometry">
                        <mxPoint x="107.97297297297291" y="534" as="targetPoint"/>
                        <mxPoint x="140" y="455" as="sourcePoint"/>
                    </mxGeometry>
                </mxCell>
                <mxCell id="wtRP7KLYoaJ9AERdt9XS-23" style="edgeStyle=none;html=1;exitX=1.038;exitY=-0.126;exitDx=0;exitDy=0;entryX=0.5;entryY=0;entryDx=0;entryDy=0;exitPerimeter=0;" parent="1" source="_Pthzp7HTup5jgblxtk6-52" target="wtRP7KLYoaJ9AERdt9XS-7" edge="1">
                    <mxGeometry relative="1" as="geometry">
                        <mxPoint x="570" y="187.5" as="sourcePoint"/>
                    </mxGeometry>
                </mxCell>
                <mxCell id="wtRP7KLYoaJ9AERdt9XS-34" value="GROUPE" style="swimlane;fontStyle=1;align=center;verticalAlign=top;childLayout=stackLayout;horizontal=1;startSize=26;horizontalStack=0;resizeParent=1;resizeParentMax=0;resizeLast=0;collapsible=1;marginBottom=0;whiteSpace=wrap;html=1;" parent="1" vertex="1">
                    <mxGeometry x="740" y="560" width="160" height="164" as="geometry"/>
                </mxCell>
                <mxCell id="wtRP7KLYoaJ9AERdt9XS-35" value="+ Id_groupe: Int" style="text;strokeColor=none;fillColor=none;align=left;verticalAlign=top;spacingLeft=4;spacingRight=4;overflow=hidden;rotatable=0;points=[[0,0.5],[1,0.5]];portConstraint=eastwest;whiteSpace=wrap;html=1;" parent="wtRP7KLYoaJ9AERdt9XS-34" vertex="1">
                    <mxGeometry y="26" width="160" height="26" as="geometry"/>
                </mxCell>
                <mxCell id="wtRP7KLYoaJ9AERdt9XS-36" value="" style="line;strokeWidth=1;fillColor=none;align=left;verticalAlign=middle;spacingTop=-1;spacingLeft=3;spacingRight=3;rotatable=0;labelPosition=right;points=[];portConstraint=eastwest;strokeColor=inherit;" parent="wtRP7KLYoaJ9AERdt9XS-34" vertex="1">
                    <mxGeometry y="52" width="160" height="8" as="geometry"/>
                </mxCell>
                <mxCell id="wtRP7KLYoaJ9AERdt9XS-37" value="Yearof creation: date" style="text;strokeColor=none;fillColor=none;align=left;verticalAlign=top;spacingLeft=4;spacingRight=4;overflow=hidden;rotatable=0;points=[[0,0.5],[1,0.5]];portConstraint=eastwest;whiteSpace=wrap;html=1;" parent="wtRP7KLYoaJ9AERdt9XS-34" vertex="1">
                    <mxGeometry y="60" width="160" height="26" as="geometry"/>
                </mxCell>
                <mxCell id="lzSHyx1m2dlcCRDp13aD-1" value="¤ID_ADMIN: Not null" style="text;strokeColor=none;fillColor=none;align=left;verticalAlign=top;spacingLeft=4;spacingRight=4;overflow=hidden;rotatable=0;points=[[0,0.5],[1,0.5]];portConstraint=eastwest;whiteSpace=wrap;html=1;" parent="wtRP7KLYoaJ9AERdt9XS-34" vertex="1">
                    <mxGeometry y="86" width="160" height="26" as="geometry"/>
                </mxCell>
                <mxCell id="lzSHyx1m2dlcCRDp13aD-3" value="¤ID_TEACHER: Not null" style="text;strokeColor=none;fillColor=none;align=left;verticalAlign=top;spacingLeft=4;spacingRight=4;overflow=hidden;rotatable=0;points=[[0,0.5],[1,0.5]];portConstraint=eastwest;whiteSpace=wrap;html=1;" parent="wtRP7KLYoaJ9AERdt9XS-34" vertex="1">
                    <mxGeometry y="112" width="160" height="26" as="geometry"/>
                </mxCell>
                <mxCell id="9Iytg9f-xhzlEZfqACmw-1" value="¤ID_STUDENT: Not null" style="text;strokeColor=none;fillColor=none;align=left;verticalAlign=top;spacingLeft=4;spacingRight=4;overflow=hidden;rotatable=0;points=[[0,0.5],[1,0.5]];portConstraint=eastwest;whiteSpace=wrap;html=1;" parent="wtRP7KLYoaJ9AERdt9XS-34" vertex="1">
                    <mxGeometry y="138" width="160" height="26" as="geometry"/>
                </mxCell>
                <mxCell id="wtRP7KLYoaJ9AERdt9XS-44" style="edgeStyle=none;html=1;exitX=0.84;exitY=1.016;exitDx=0;exitDy=0;entryX=1;entryY=0.5;entryDx=0;entryDy=0;exitPerimeter=0;" parent="1" source="wtRP7KLYoaJ9AERdt9XS-11" target="wtRP7KLYoaJ9AERdt9XS-37" edge="1">
                    <mxGeometry relative="1" as="geometry">
                        <mxPoint x="1020" y="636" as="targetPoint"/>
                    </mxGeometry>
                </mxCell>
                <mxCell id="wtRP7KLYoaJ9AERdt9XS-47" style="edgeStyle=none;html=1;exitX=0.544;exitY=1.203;exitDx=0;exitDy=0;exitPerimeter=0;entryX=0;entryY=0.5;entryDx=0;entryDy=0;" parent="1" source="B6UmRjRcCKGtugro-qqq-5" target="wtRP7KLYoaJ9AERdt9XS-19" edge="1">
                    <mxGeometry relative="1" as="geometry">
                        <mxPoint x="318.8599999999999" y="230.41600000000005" as="sourcePoint"/>
                        <mxPoint x="500" y="540" as="targetPoint"/>
                        <Array as="points">
                            <mxPoint x="430" y="530"/>
                        </Array>
                    </mxGeometry>
                </mxCell>
                <mxCell id="wtRP7KLYoaJ9AERdt9XS-50" style="edgeStyle=none;html=1;exitX=0.289;exitY=1.038;exitDx=0;exitDy=0;entryX=0;entryY=0.5;entryDx=0;entryDy=0;exitPerimeter=0;" parent="1" source="B6UmRjRcCKGtugro-qqq-5" target="9Iytg9f-xhzlEZfqACmw-1" edge="1">
                    <mxGeometry relative="1" as="geometry">
                        <mxPoint x="279.94000000000005" y="230" as="sourcePoint"/>
                        <mxPoint x="278" y="630" as="targetPoint"/>
                        <Array as="points">
                            <mxPoint x="280" y="650"/>
                        </Array>
                    </mxGeometry>
                </mxCell>
                <mxCell id="wtRP7KLYoaJ9AERdt9XS-55" style="edgeStyle=none;html=1;exitX=0;exitY=0.5;exitDx=0;exitDy=0;entryX=1;entryY=0.5;entryDx=0;entryDy=0;" parent="1" source="wtRP7KLYoaJ9AERdt9XS-4" target="_Pthzp7HTup5jgblxtk6-13" edge="1">
                    <mxGeometry relative="1" as="geometry">
                        <mxPoint x="168.53792642438475" y="400.57734352369766" as="targetPoint"/>
                    </mxGeometry>
                </mxCell>
                <mxCell id="wtRP7KLYoaJ9AERdt9XS-58" style="edgeStyle=none;html=1;entryX=0;entryY=0.5;entryDx=0;entryDy=0;exitX=0.917;exitY=1.038;exitDx=0;exitDy=0;exitPerimeter=0;" parent="1" source="8aQXVgyjP0tC8XVo59yX-3" target="lzSHyx1m2dlcCRDp13aD-1" edge="1">
                    <mxGeometry relative="1" as="geometry">
                        <mxPoint x="640" y="410" as="sourcePoint"/>
                        <mxPoint x="572" y="636" as="targetPoint"/>
                    </mxGeometry>
                </mxCell>
                <mxCell id="wtRP7KLYoaJ9AERdt9XS-62" style="edgeStyle=none;html=1;exitX=0;exitY=0.5;exitDx=0;exitDy=0;entryX=0.75;entryY=0;entryDx=0;entryDy=0;" parent="1" source="wtRP7KLYoaJ9AERdt9XS-10" target="wtRP7KLYoaJ9AERdt9XS-16" edge="1">
                    <mxGeometry relative="1" as="geometry">
                        <mxPoint x="930" y="432" as="targetPoint"/>
                    </mxGeometry>
                </mxCell>
                <mxCell id="B6UmRjRcCKGtugro-qqq-1" value="Admin" style="swimlane;fontStyle=0;childLayout=stackLayout;horizontal=1;startSize=26;fillColor=none;horizontalStack=0;resizeParent=1;resizeParentMax=0;resizeLast=0;collapsible=1;marginBottom=0;whiteSpace=wrap;html=1;" parent="1" vertex="1">
                    <mxGeometry x="80" y="-80" width="190" height="130" as="geometry"/>
                </mxCell>
                <mxCell id="B6UmRjRcCKGtugro-qqq-2" value="+ Id_admin: Int" style="text;strokeColor=none;fillColor=none;align=left;verticalAlign=top;spacingLeft=4;spacingRight=4;overflow=hidden;rotatable=0;points=[[0,0.5],[1,0.5]];portConstraint=eastwest;whiteSpace=wrap;html=1;" parent="B6UmRjRcCKGtugro-qqq-1" vertex="1">
                    <mxGeometry y="26" width="190" height="26" as="geometry"/>
                </mxCell>
                <mxCell id="B6UmRjRcCKGtugro-qqq-3" value="+ full_name: string" style="text;strokeColor=none;fillColor=none;align=left;verticalAlign=top;spacingLeft=4;spacingRight=4;overflow=hidden;rotatable=0;points=[[0,0.5],[1,0.5]];portConstraint=eastwest;whiteSpace=wrap;html=1;" parent="B6UmRjRcCKGtugro-qqq-1" vertex="1">
                    <mxGeometry y="52" width="190" height="26" as="geometry"/>
                </mxCell>
                <mxCell id="B6UmRjRcCKGtugro-qqq-4" value="+ adress: string" style="text;strokeColor=none;fillColor=none;align=left;verticalAlign=top;spacingLeft=4;spacingRight=4;overflow=hidden;rotatable=0;points=[[0,0.5],[1,0.5]];portConstraint=eastwest;whiteSpace=wrap;html=1;" parent="B6UmRjRcCKGtugro-qqq-1" vertex="1">
                    <mxGeometry y="78" width="190" height="26" as="geometry"/>
                </mxCell>
                <mxCell id="B6UmRjRcCKGtugro-qqq-5" value="+ date_of_insription: date" style="text;strokeColor=none;fillColor=none;align=left;verticalAlign=top;spacingLeft=4;spacingRight=4;overflow=hidden;rotatable=0;points=[[0,0.5],[1,0.5]];portConstraint=eastwest;whiteSpace=wrap;html=1;" parent="B6UmRjRcCKGtugro-qqq-1" vertex="1">
                    <mxGeometry y="104" width="190" height="26" as="geometry"/>
                </mxCell>
                <mxCell id="tUN1H8zujMNtEXYkeq2i-1" value="Examen" style="swimlane;fontStyle=1;align=center;verticalAlign=top;childLayout=stackLayout;horizontal=1;startSize=26;horizontalStack=0;resizeParent=1;resizeParentMax=0;resizeLast=0;collapsible=1;marginBottom=0;whiteSpace=wrap;html=1;" parent="1" vertex="1">
                    <mxGeometry x="-10" y="420" width="160" height="164" as="geometry"/>
                </mxCell>
                <mxCell id="tUN1H8zujMNtEXYkeq2i-2" value="+ Id_Examen: int" style="text;strokeColor=none;fillColor=none;align=left;verticalAlign=top;spacingLeft=4;spacingRight=4;overflow=hidden;rotatable=0;points=[[0,0.5],[1,0.5]];portConstraint=eastwest;whiteSpace=wrap;html=1;" parent="tUN1H8zujMNtEXYkeq2i-1" vertex="1">
                    <mxGeometry y="26" width="160" height="26" as="geometry"/>
                </mxCell>
                <mxCell id="tUN1H8zujMNtEXYkeq2i-3" value="+ date/hour: date" style="text;strokeColor=none;fillColor=none;align=left;verticalAlign=top;spacingLeft=4;spacingRight=4;overflow=hidden;rotatable=0;points=[[0,0.5],[1,0.5]];portConstraint=eastwest;whiteSpace=wrap;html=1;" parent="tUN1H8zujMNtEXYkeq2i-1" vertex="1">
                    <mxGeometry y="52" width="160" height="26" as="geometry"/>
                </mxCell>
                <mxCell id="tUN1H8zujMNtEXYkeq2i-4" value="" style="line;strokeWidth=1;fillColor=none;align=left;verticalAlign=middle;spacingTop=-1;spacingLeft=3;spacingRight=3;rotatable=0;labelPosition=right;points=[];portConstraint=eastwest;strokeColor=inherit;" parent="tUN1H8zujMNtEXYkeq2i-1" vertex="1">
                    <mxGeometry y="78" width="160" height="8" as="geometry"/>
                </mxCell>
                <mxCell id="tUN1H8zujMNtEXYkeq2i-5" value="+ place: string" style="text;strokeColor=none;fillColor=none;align=left;verticalAlign=top;spacingLeft=4;spacingRight=4;overflow=hidden;rotatable=0;points=[[0,0.5],[1,0.5]];portConstraint=eastwest;whiteSpace=wrap;html=1;" parent="tUN1H8zujMNtEXYkeq2i-1" vertex="1">
                    <mxGeometry y="86" width="160" height="26" as="geometry"/>
                </mxCell>
                <mxCell id="tUN1H8zujMNtEXYkeq2i-6" value="+ name: string" style="text;strokeColor=none;fillColor=none;align=left;verticalAlign=top;spacingLeft=4;spacingRight=4;overflow=hidden;rotatable=0;points=[[0,0.5],[1,0.5]];portConstraint=eastwest;whiteSpace=wrap;html=1;" parent="tUN1H8zujMNtEXYkeq2i-1" vertex="1">
                    <mxGeometry y="112" width="160" height="26" as="geometry"/>
                </mxCell>
                <mxCell id="8aQXVgyjP0tC8XVo59yX-4" value="&amp;nbsp;#ID_ADMIN: foreignKey" style="text;strokeColor=none;fillColor=none;align=left;verticalAlign=top;spacingLeft=4;spacingRight=4;overflow=hidden;rotatable=0;points=[[0,0.5],[1,0.5]];portConstraint=eastwest;whiteSpace=wrap;html=1;" parent="tUN1H8zujMNtEXYkeq2i-1" vertex="1">
                    <mxGeometry y="138" width="160" height="26" as="geometry"/>
                </mxCell>
                <mxCell id="_Pthzp7HTup5jgblxtk6-12" value="EXAMEN_TEACHER" style="swimlane;fontStyle=1;align=center;verticalAlign=top;childLayout=stackLayout;horizontal=1;startSize=26;horizontalStack=0;resizeParent=1;resizeParentMax=0;resizeLast=0;collapsible=1;marginBottom=0;whiteSpace=wrap;html=1;" parent="1" vertex="1">
                    <mxGeometry x="30" y="240" width="160" height="112" as="geometry"/>
                </mxCell>
                <mxCell id="_Pthzp7HTup5jgblxtk6-13" value="&amp;nbsp;#ID_TEACHER: Not null" style="text;strokeColor=none;fillColor=none;align=left;verticalAlign=top;spacingLeft=4;spacingRight=4;overflow=hidden;rotatable=0;points=[[0,0.5],[1,0.5]];portConstraint=eastwest;whiteSpace=wrap;html=1;" parent="_Pthzp7HTup5jgblxtk6-12" vertex="1">
                    <mxGeometry y="26" width="160" height="26" as="geometry"/>
                </mxCell>
                <mxCell id="_Pthzp7HTup5jgblxtk6-14" value="" style="line;strokeWidth=1;fillColor=none;align=left;verticalAlign=middle;spacingTop=-1;spacingLeft=3;spacingRight=3;rotatable=0;labelPosition=right;points=[];portConstraint=eastwest;strokeColor=inherit;" parent="_Pthzp7HTup5jgblxtk6-12" vertex="1">
                    <mxGeometry y="52" width="160" height="8" as="geometry"/>
                </mxCell>
                <mxCell id="_Pthzp7HTup5jgblxtk6-29" value="&amp;nbsp;#ID_EXAMEN: Not null" style="text;strokeColor=none;fillColor=none;align=left;verticalAlign=top;spacingLeft=4;spacingRight=4;overflow=hidden;rotatable=0;points=[[0,0.5],[1,0.5]];portConstraint=eastwest;whiteSpace=wrap;html=1;" parent="_Pthzp7HTup5jgblxtk6-12" vertex="1">
                    <mxGeometry y="60" width="160" height="26" as="geometry"/>
                </mxCell>
                <mxCell id="_Pthzp7HTup5jgblxtk6-15" value="&lt;span style=&quot;text-align: center;&quot;&gt;Scoring/&amp;nbsp;&lt;/span&gt;&lt;span style=&quot;text-align: center; background-color: initial;&quot;&gt;add questions&lt;/span&gt;&lt;span style=&quot;text-align: center;&quot;&gt;&lt;br&gt;&lt;/span&gt;" style="text;strokeColor=none;fillColor=none;align=left;verticalAlign=top;spacingLeft=4;spacingRight=4;overflow=hidden;rotatable=0;points=[[0,0.5],[1,0.5]];portConstraint=eastwest;whiteSpace=wrap;html=1;" parent="_Pthzp7HTup5jgblxtk6-12" vertex="1">
                    <mxGeometry y="86" width="160" height="26" as="geometry"/>
                </mxCell>
                <mxCell id="_Pthzp7HTup5jgblxtk6-42" style="edgeStyle=none;html=1;exitX=1;exitY=0.5;exitDx=0;exitDy=0;entryX=0;entryY=0;entryDx=0;entryDy=0;" parent="1" source="B6UmRjRcCKGtugro-qqq-3" target="wtRP7KLYoaJ9AERdt9XS-2" edge="1">
                    <mxGeometry relative="1" as="geometry">
                        <mxPoint x="360.47999999999956" y="156.7059999999999" as="targetPoint"/>
                    </mxGeometry>
                </mxCell>
                <mxCell id="_Pthzp7HTup5jgblxtk6-49" value="ADMIN_STUDENT" style="swimlane;fontStyle=1;align=center;verticalAlign=top;childLayout=stackLayout;horizontal=1;startSize=26;horizontalStack=0;resizeParent=1;resizeParentMax=0;resizeLast=0;collapsible=1;marginBottom=0;whiteSpace=wrap;html=1;" parent="1" vertex="1">
                    <mxGeometry x="730" y="60" width="160" height="112" as="geometry"/>
                </mxCell>
                <mxCell id="_Pthzp7HTup5jgblxtk6-54" value="&amp;nbsp;#ID_STUDENT: Not null" style="text;strokeColor=none;fillColor=none;align=left;verticalAlign=top;spacingLeft=4;spacingRight=4;overflow=hidden;rotatable=0;points=[[0,0.5],[1,0.5]];portConstraint=eastwest;whiteSpace=wrap;html=1;" parent="_Pthzp7HTup5jgblxtk6-49" vertex="1">
                    <mxGeometry y="26" width="160" height="26" as="geometry"/>
                </mxCell>
                <mxCell id="_Pthzp7HTup5jgblxtk6-51" value="" style="line;strokeWidth=1;fillColor=none;align=left;verticalAlign=middle;spacingTop=-1;spacingLeft=3;spacingRight=3;rotatable=0;labelPosition=right;points=[];portConstraint=eastwest;strokeColor=inherit;" parent="_Pthzp7HTup5jgblxtk6-49" vertex="1">
                    <mxGeometry y="52" width="160" height="8" as="geometry"/>
                </mxCell>
                <mxCell id="_Pthzp7HTup5jgblxtk6-52" value="&amp;nbsp;#ID_ADMIN: Not null" style="text;strokeColor=none;fillColor=none;align=left;verticalAlign=top;spacingLeft=4;spacingRight=4;overflow=hidden;rotatable=0;points=[[0,0.5],[1,0.5]];portConstraint=eastwest;whiteSpace=wrap;html=1;" parent="_Pthzp7HTup5jgblxtk6-49" vertex="1">
                    <mxGeometry y="60" width="160" height="26" as="geometry"/>
                </mxCell>
                <mxCell id="_Pthzp7HTup5jgblxtk6-53" value="&lt;span style=&quot;text-align: center;&quot;&gt;register&amp;nbsp;&lt;/span&gt;&lt;span style=&quot;text-align: center; background-color: initial;&quot;&gt;modify&amp;nbsp;&lt;/span&gt;&lt;span style=&quot;text-align: center; background-color: initial;&quot;&gt;delete&lt;/span&gt;&lt;span style=&quot;text-align: center; background-color: initial;&quot;&gt;&lt;br&gt;&lt;/span&gt;" style="text;strokeColor=none;fillColor=none;align=left;verticalAlign=top;spacingLeft=4;spacingRight=4;overflow=hidden;rotatable=0;points=[[0,0.5],[1,0.5]];portConstraint=eastwest;whiteSpace=wrap;html=1;" parent="_Pthzp7HTup5jgblxtk6-49" vertex="1">
                    <mxGeometry y="86" width="160" height="26" as="geometry"/>
                </mxCell>
                <mxCell id="_Pthzp7HTup5jgblxtk6-55" style="edgeStyle=none;html=1;exitX=0;exitY=0.5;exitDx=0;exitDy=0;entryX=0.962;entryY=-0.093;entryDx=0;entryDy=0;entryPerimeter=0;" parent="1" source="_Pthzp7HTup5jgblxtk6-54" target="B6UmRjRcCKGtugro-qqq-3" edge="1">
                    <mxGeometry relative="1" as="geometry"/>
                </mxCell>
            </root>
        </mxGraphModel>
    </diagram>
    <diagram id="Dl5gDwCnVZnUUH5eJZGg" name="Cardinality">
        <mxGraphModel dx="-24" dy="1597" grid="1" gridSize="10" guides="1" tooltips="1" connect="1" arrows="1" fold="1" page="1" pageScale="1" pageWidth="850" pageHeight="1100" math="0" shadow="0">
            <root>
                <mxCell id="0"/>
                <mxCell id="1" parent="0"/>
                <mxCell id="h6CRQ3gZqcESy9kesPHx-1" value="&lt;h1&gt;&lt;font style=&quot;&quot;&gt;&lt;font style=&quot;font-size: 48px;&quot;&gt;Cardinality:&lt;/font&gt;&lt;/font&gt;&lt;/h1&gt;&lt;font style=&quot;&quot;&gt;&lt;br&gt;&lt;span style=&quot;font-size: 24px;&quot;&gt;- Teacher&amp;nbsp;&lt;/span&gt;&lt;br&gt;&lt;span style=&quot;font-size: 24px;&quot;&gt;- student&amp;nbsp;&lt;/span&gt;&lt;br&gt;&lt;span style=&quot;font-size: 24px;&quot;&gt;- admin&lt;/span&gt;&lt;br&gt;&lt;span style=&quot;font-size: 24px;&quot;&gt;- exam&lt;/span&gt;&lt;br&gt;&lt;span style=&quot;font-size: 24px;&quot;&gt;- group&lt;/span&gt;&lt;br&gt;&lt;span style=&quot;font-size: 24px;&quot;&gt;- score&amp;nbsp;&lt;/span&gt;&lt;br&gt;&lt;span style=&quot;font-size: 24px;&quot;&gt;----&lt;/span&gt;&lt;br&gt;&lt;br&gt;&lt;br&gt;&lt;span style=&quot;font-size: 24px;&quot;&gt;Admin (create/modify/delete 1 or many) -&amp;gt; teachers&lt;/span&gt;&lt;br&gt;&lt;span style=&quot;font-size: 24px;&quot;&gt;Admin (create/modify/delete 1 or many) --&amp;gt; students&lt;/span&gt;&lt;br&gt;&lt;span style=&quot;font-size: 24px;&quot;&gt;Admin(create/manage1 or many) --&amp;gt; group ()&lt;/span&gt;&lt;br&gt;&lt;br&gt;&lt;span style=&quot;font-size: 24px;&quot;&gt;----&lt;/span&gt;&lt;br&gt;&lt;br&gt;&lt;br&gt;&lt;span style=&quot;font-size: 24px;&quot;&gt;Teacher (evaluate1 or many)-- student&lt;/span&gt;&lt;br&gt;&lt;span style=&quot;font-size: 24px;&quot;&gt;Teacher (add 1 or many)-- exams&amp;nbsp;&lt;/span&gt;&lt;br&gt;&lt;span style=&quot;font-size: 24px;&quot;&gt;Teacher (add 1 or many-- score ()&lt;/span&gt;&lt;br&gt;&lt;span style=&quot;font-size: 24px;&quot;&gt;Teacher -- admin (&lt;/span&gt;&lt;br&gt;&lt;span style=&quot;font-size: 24px;&quot;&gt;Teacher -- group ()&lt;/span&gt;&lt;br&gt;&lt;span style=&quot;font-size: 24px;&quot;&gt;----&lt;/span&gt;&lt;br&gt;&lt;br&gt;&lt;br&gt;&lt;span style=&quot;font-size: 24px;&quot;&gt;Student -- teacher (being evaluated)&lt;/span&gt;&lt;br&gt;&lt;span style=&quot;font-size: 24px;&quot;&gt;Student -- exam (being examed)&lt;/span&gt;&lt;br&gt;&lt;span style=&quot;font-size: 24px;&quot;&gt;Student -- score (get score)&lt;/span&gt;&lt;br&gt;&lt;span style=&quot;font-size: 24px;&quot;&gt;Student -- admin (being modified)&lt;/span&gt;&lt;br&gt;&lt;span style=&quot;font-size: 24px;&quot;&gt;Student -- group (enrolled)&lt;/span&gt;&lt;br&gt;&lt;br&gt;&lt;br&gt;&lt;span style=&quot;font-size: 24px;&quot;&gt;----&lt;/span&gt;&lt;/font&gt;" style="text;whiteSpace=wrap;html=1;" parent="1" vertex="1">
                    <mxGeometry x="2160" y="-100" width="700" height="1024.75" as="geometry"/>
                </mxCell>
                <mxCell id="db6hMnd84wVZcbL-Chot-1" value="&lt;font style=&quot;font-size: 24px;&quot;&gt;- Teacher&amp;nbsp;&lt;br&gt;- student&amp;nbsp;&lt;br&gt;- admin&lt;br&gt;- exam&lt;br&gt;- group&lt;br&gt;- score&amp;nbsp;&lt;br&gt;----&lt;br&gt;&lt;br&gt;&lt;br&gt;Admin -- teacher(register/modify/delete)&lt;br&gt;Admin -- student (register/modify/delete)&lt;br&gt;Admin -- group (create/manage)&lt;br&gt;----&lt;br&gt;&lt;br&gt;&lt;br&gt;Teacher -- student (evaluate)&lt;br&gt;Teacher -- exam (add questions)&lt;br&gt;Teacher -- score (add score)&lt;br&gt;Teacher -- admin (&lt;br&gt;Teacher -- group (assigned)&lt;br&gt;----&lt;br&gt;&lt;br&gt;&lt;br&gt;Student -- teacher (being evaluated)&lt;br&gt;Student -- exam (being examed)&lt;br&gt;Student -- score (get score)&lt;br&gt;Student -- admin (being modified)&lt;br&gt;Student -- group (enrolled)&lt;br&gt;&lt;br&gt;&lt;br&gt;----&lt;/font&gt;" style="text;whiteSpace=wrap;html=1;" parent="1" vertex="1">
                    <mxGeometry x="1220" y="-60" width="560" height="1010" as="geometry"/>
                </mxCell>
                <mxCell id="qh_aiOSFf1J_be_7d3qo-1" value="" style="shape=flexArrow;endArrow=classic;html=1;fontSize=24;" parent="1" edge="1">
                    <mxGeometry width="50" height="50" relative="1" as="geometry">
                        <mxPoint x="1800" y="100" as="sourcePoint"/>
                        <mxPoint x="2080" y="100" as="targetPoint"/>
                    </mxGeometry>
                </mxCell>
            </root>
        </mxGraphModel>
    </diagram>
</mxfile>